<mxfile host="app.diagrams.net" modified="2024-12-14T13:55:36.959Z" agent="5.0 (Windows NT 10.0; Win64; x64) AppleWebKit/537.36 (KHTML, like Gecko) Chrome/131.0.0.0 Safari/537.36" etag="ZPtTCOF-1gnZvKa9mxig" version="16.5.6" type="github">
  <diagram id="n1_HV0wcGqcLTK0AHCir" name="Page-1">
    <mxGraphModel dx="1944" dy="653" grid="1" gridSize="10" guides="1" tooltips="1" connect="1" arrows="1" fold="1" page="1" pageScale="1" pageWidth="827" pageHeight="1169" math="0" shadow="0">
      <root>
        <mxCell id="0" />
        <mxCell id="1" parent="0" />
        <mxCell id="n6RoVSe_1LHYYUnBPjRV-3" value="" style="ellipse;whiteSpace=wrap;html=1;aspect=fixed;sketch=0;fontSize=7;fontColor=none;" vertex="1" parent="1">
          <mxGeometry x="-800" y="240" width="80" height="80" as="geometry" />
        </mxCell>
        <mxCell id="n6RoVSe_1LHYYUnBPjRV-4" value="" style="ellipse;whiteSpace=wrap;html=1;aspect=fixed;sketch=0;fontSize=7;fontColor=none;" vertex="1" parent="1">
          <mxGeometry x="-680" y="360" width="80" height="80" as="geometry" />
        </mxCell>
        <mxCell id="n6RoVSe_1LHYYUnBPjRV-5" value="" style="ellipse;whiteSpace=wrap;html=1;aspect=fixed;sketch=0;fontSize=7;" vertex="1" parent="1">
          <mxGeometry x="-560" y="480" width="80" height="80" as="geometry" />
        </mxCell>
        <mxCell id="n6RoVSe_1LHYYUnBPjRV-6" value="" style="ellipse;whiteSpace=wrap;html=1;aspect=fixed;sketch=0;fontSize=7;fontColor=none;" vertex="1" parent="1">
          <mxGeometry x="-800" y="480" width="80" height="80" as="geometry" />
        </mxCell>
        <mxCell id="n6RoVSe_1LHYYUnBPjRV-7" value="" style="ellipse;whiteSpace=wrap;html=1;aspect=fixed;sketch=0;fontSize=7;fontColor=none;" vertex="1" parent="1">
          <mxGeometry x="-400" y="240" width="80" height="80" as="geometry" />
        </mxCell>
        <mxCell id="n6RoVSe_1LHYYUnBPjRV-8" value="" style="ellipse;whiteSpace=wrap;html=1;aspect=fixed;sketch=0;fontSize=7;fontColor=none;" vertex="1" parent="1">
          <mxGeometry x="-400" y="480" width="80" height="80" as="geometry" />
        </mxCell>
        <mxCell id="n6RoVSe_1LHYYUnBPjRV-9" value="" style="ellipse;whiteSpace=wrap;html=1;aspect=fixed;sketch=0;fontSize=7;fontColor=none;" vertex="1" parent="1">
          <mxGeometry x="-560" y="240" width="80" height="80" as="geometry" />
        </mxCell>
        <mxCell id="n6RoVSe_1LHYYUnBPjRV-10" value="" style="ellipse;whiteSpace=wrap;html=1;aspect=fixed;sketch=0;fontSize=7;fontColor=none;" vertex="1" parent="1">
          <mxGeometry x="-280" y="360" width="80" height="80" as="geometry" />
        </mxCell>
        <mxCell id="n6RoVSe_1LHYYUnBPjRV-23" value="" style="endArrow=classic;html=1;rounded=0;fontSize=7;fontColor=none;exitX=1;exitY=0.5;exitDx=0;exitDy=0;entryX=0;entryY=0;entryDx=0;entryDy=0;" edge="1" parent="1" source="n6RoVSe_1LHYYUnBPjRV-7" target="n6RoVSe_1LHYYUnBPjRV-10">
          <mxGeometry width="50" height="50" relative="1" as="geometry">
            <mxPoint x="-460" y="500" as="sourcePoint" />
            <mxPoint x="-410" y="450" as="targetPoint" />
          </mxGeometry>
        </mxCell>
        <mxCell id="n6RoVSe_1LHYYUnBPjRV-24" value="" style="endArrow=classic;html=1;rounded=0;fontSize=7;fontColor=none;exitX=1;exitY=0.5;exitDx=0;exitDy=0;entryX=0;entryY=1;entryDx=0;entryDy=0;fillColor=#f8cecc;strokeColor=#b85450;" edge="1" parent="1" source="n6RoVSe_1LHYYUnBPjRV-8" target="n6RoVSe_1LHYYUnBPjRV-10">
          <mxGeometry width="50" height="50" relative="1" as="geometry">
            <mxPoint x="-230" y="289.9999999999999" as="sourcePoint" />
            <mxPoint x="-138.28427124746167" y="341.7157287525381" as="targetPoint" />
          </mxGeometry>
        </mxCell>
        <mxCell id="n6RoVSe_1LHYYUnBPjRV-25" value="" style="endArrow=classic;html=1;rounded=0;fontSize=7;fontColor=none;exitX=0.5;exitY=0;exitDx=0;exitDy=0;entryX=0.5;entryY=1;entryDx=0;entryDy=0;" edge="1" parent="1" source="n6RoVSe_1LHYYUnBPjRV-8" target="n6RoVSe_1LHYYUnBPjRV-7">
          <mxGeometry width="50" height="50" relative="1" as="geometry">
            <mxPoint x="-220" y="299.9999999999999" as="sourcePoint" />
            <mxPoint x="-128.28427124746167" y="351.7157287525381" as="targetPoint" />
          </mxGeometry>
        </mxCell>
        <mxCell id="n6RoVSe_1LHYYUnBPjRV-26" value="" style="endArrow=classic;html=1;rounded=0;fontSize=7;fontColor=none;exitX=0;exitY=1;exitDx=0;exitDy=0;entryX=1;entryY=0;entryDx=0;entryDy=0;" edge="1" parent="1" source="n6RoVSe_1LHYYUnBPjRV-7" target="n6RoVSe_1LHYYUnBPjRV-5">
          <mxGeometry width="50" height="50" relative="1" as="geometry">
            <mxPoint x="-210" y="309.9999999999999" as="sourcePoint" />
            <mxPoint x="-118.28427124746167" y="361.7157287525381" as="targetPoint" />
          </mxGeometry>
        </mxCell>
        <mxCell id="n6RoVSe_1LHYYUnBPjRV-27" value="" style="endArrow=classic;html=1;rounded=0;fontSize=7;fontColor=none;exitX=1;exitY=0.5;exitDx=0;exitDy=0;fillColor=#f8cecc;strokeColor=#b85450;" edge="1" parent="1" source="n6RoVSe_1LHYYUnBPjRV-9" target="n6RoVSe_1LHYYUnBPjRV-7">
          <mxGeometry width="50" height="50" relative="1" as="geometry">
            <mxPoint x="-200" y="319.9999999999999" as="sourcePoint" />
            <mxPoint x="-108.28427124746167" y="371.7157287525381" as="targetPoint" />
          </mxGeometry>
        </mxCell>
        <mxCell id="n6RoVSe_1LHYYUnBPjRV-28" value="" style="endArrow=classic;html=1;rounded=0;fontSize=7;fontColor=none;exitX=1;exitY=0.5;exitDx=0;exitDy=0;entryX=0;entryY=0.5;entryDx=0;entryDy=0;" edge="1" parent="1" source="n6RoVSe_1LHYYUnBPjRV-5" target="n6RoVSe_1LHYYUnBPjRV-8">
          <mxGeometry width="50" height="50" relative="1" as="geometry">
            <mxPoint x="-190" y="329.9999999999999" as="sourcePoint" />
            <mxPoint x="-98.28427124746167" y="381.7157287525381" as="targetPoint" />
          </mxGeometry>
        </mxCell>
        <mxCell id="n6RoVSe_1LHYYUnBPjRV-29" value="" style="endArrow=classic;html=1;rounded=0;fontSize=7;fontColor=none;exitX=0.5;exitY=1;exitDx=0;exitDy=0;entryX=0.5;entryY=0;entryDx=0;entryDy=0;" edge="1" parent="1" source="n6RoVSe_1LHYYUnBPjRV-9" target="n6RoVSe_1LHYYUnBPjRV-5">
          <mxGeometry width="50" height="50" relative="1" as="geometry">
            <mxPoint x="-180" y="339.9999999999999" as="sourcePoint" />
            <mxPoint x="-88.28427124746167" y="391.7157287525381" as="targetPoint" />
          </mxGeometry>
        </mxCell>
        <mxCell id="n6RoVSe_1LHYYUnBPjRV-30" value="" style="endArrow=classic;html=1;rounded=0;fontSize=7;fontColor=none;exitX=0;exitY=0.5;exitDx=0;exitDy=0;" edge="1" parent="1" source="n6RoVSe_1LHYYUnBPjRV-9" target="n6RoVSe_1LHYYUnBPjRV-3">
          <mxGeometry width="50" height="50" relative="1" as="geometry">
            <mxPoint x="-170" y="349.9999999999999" as="sourcePoint" />
            <mxPoint x="-78.28427124746167" y="401.7157287525381" as="targetPoint" />
          </mxGeometry>
        </mxCell>
        <mxCell id="n6RoVSe_1LHYYUnBPjRV-31" value="" style="endArrow=classic;html=1;rounded=0;fontSize=7;fontColor=none;exitX=1;exitY=1;exitDx=0;exitDy=0;entryX=0;entryY=0;entryDx=0;entryDy=0;fillColor=#f8cecc;strokeColor=#b85450;" edge="1" parent="1" source="n6RoVSe_1LHYYUnBPjRV-3" target="n6RoVSe_1LHYYUnBPjRV-4">
          <mxGeometry width="50" height="50" relative="1" as="geometry">
            <mxPoint x="-160" y="359.9999999999999" as="sourcePoint" />
            <mxPoint x="-650" y="360" as="targetPoint" />
          </mxGeometry>
        </mxCell>
        <mxCell id="n6RoVSe_1LHYYUnBPjRV-33" value="" style="endArrow=classic;html=1;rounded=0;fontSize=7;fontColor=none;exitX=0.5;exitY=1;exitDx=0;exitDy=0;" edge="1" parent="1" source="n6RoVSe_1LHYYUnBPjRV-3" target="n6RoVSe_1LHYYUnBPjRV-6">
          <mxGeometry width="50" height="50" relative="1" as="geometry">
            <mxPoint x="-150" y="369.9999999999999" as="sourcePoint" />
            <mxPoint x="-58.284271247461675" y="421.7157287525381" as="targetPoint" />
          </mxGeometry>
        </mxCell>
        <mxCell id="n6RoVSe_1LHYYUnBPjRV-34" value="" style="endArrow=classic;html=1;rounded=0;fontSize=7;fontColor=none;exitX=1;exitY=0;exitDx=0;exitDy=0;entryX=0;entryY=1;entryDx=0;entryDy=0;" edge="1" parent="1" source="n6RoVSe_1LHYYUnBPjRV-4" target="n6RoVSe_1LHYYUnBPjRV-9">
          <mxGeometry width="50" height="50" relative="1" as="geometry">
            <mxPoint x="-140" y="379.9999999999999" as="sourcePoint" />
            <mxPoint x="-48.284271247461675" y="431.7157287525381" as="targetPoint" />
          </mxGeometry>
        </mxCell>
        <mxCell id="n6RoVSe_1LHYYUnBPjRV-35" value="" style="endArrow=classic;html=1;rounded=0;fontSize=7;fontColor=none;exitX=1;exitY=1;exitDx=0;exitDy=0;entryX=0;entryY=0;entryDx=0;entryDy=0;fillColor=#f8cecc;strokeColor=#b85450;" edge="1" parent="1" source="n6RoVSe_1LHYYUnBPjRV-4" target="n6RoVSe_1LHYYUnBPjRV-5">
          <mxGeometry width="50" height="50" relative="1" as="geometry">
            <mxPoint x="-130" y="389.9999999999999" as="sourcePoint" />
            <mxPoint x="-38.284271247461675" y="441.7157287525381" as="targetPoint" />
          </mxGeometry>
        </mxCell>
        <mxCell id="n6RoVSe_1LHYYUnBPjRV-36" value="" style="endArrow=classic;html=1;rounded=0;fontSize=7;fontColor=none;exitX=1;exitY=0;exitDx=0;exitDy=0;entryX=0;entryY=1;entryDx=0;entryDy=0;" edge="1" parent="1" source="n6RoVSe_1LHYYUnBPjRV-6" target="n6RoVSe_1LHYYUnBPjRV-4">
          <mxGeometry width="50" height="50" relative="1" as="geometry">
            <mxPoint x="-120" y="399.9999999999999" as="sourcePoint" />
            <mxPoint x="-28.284271247461675" y="451.7157287525381" as="targetPoint" />
          </mxGeometry>
        </mxCell>
      </root>
    </mxGraphModel>
  </diagram>
</mxfile>
